<?xml version="1.0" encoding="utf-8"?>
<!-- Generator: Adobe Illustrator 20.1.0, SVG Export Plug-In . SVG Version: 6.00 Build 0)  -->
<svg version="1.1" id="Layer_1" xmlns="http://www.w3.org/2000/svg" xmlns:xlink="http://www.w3.org/1999/xlink" x="0px" y="0px"
	 width="700px" height="544px" viewBox="0 0 700 544" style="enable-background:new 0 0 700 544;" xml:space="preserve">
<style type="text/css">
	.st0{fill:#231F20;}
	.st1{fill:none;stroke:#231F20;stroke-width:2.1396;}
</style>
<g>
	<path class="st0" d="M434.3,341l-13.1,54L408,341h-12.3l17.5,67.1H429l17.5-67.1H434.3z M455.1,341v66.8h39.7v-10h-28.2v-19.1h24
		v-9.9h-24V351h28.2v-10H455.1z M505.2,341v66.8h37.2v-10h-25.8V341H505.2z"/>
	<path class="st0" d="M445.1,248.4l6.9,28.8h-13.9L445.1,248.4z M437.2,235.3l-17.5,67.1H432l3.7-15.2h18.8l3.7,15.2h12.3L453,235.3
		H437.2z M381.6,267.5v-21.8h9.8c4.5,0,10.3,1.6,10.3,10.4v0.9c0,8.8-5.8,10.4-10.3,10.4h-9.8V267.5z M381.6,277.5h9.8l9.6,24.9
		h12.4l-10.9-26.7c6.1-2.4,10.9-7.6,10.9-18.3v-1.7c0-16.9-11.9-20-22.3-20h-20.9v66.8h11.5v-25H381.6z M345.7,245.7h15.9v-10h-43.3
		v10h15.9v56.7h11.5V245.7z M236.8,282.1l19.3-46.4h-12.5L231,268l-12.6-32.3H206l19.3,46.4v20.4h11.5V282.1z M180,245.7
		c4.8,0,9.4,1.8,9.4,8.2v1.1c0,6.4-4.6,8.2-9.4,8.2h-9v-17.5L180,245.7L180,245.7z M181.3,273.2c5,0,9.8,2.2,9.8,9.2v0.9
		c0,6.8-4.9,9.1-9.8,9.1H171v-19.2H181.3z M159.6,235.7v66.8h21.3c11,0,21.9-3.6,21.9-18.7V282c0-7.6-3.9-11.7-9.2-13.9
		c4.4-2.2,7.4-6.1,7.4-12.7v-1.7c0-14.6-10.4-18-21.1-18L159.6,235.7L159.6,235.7z"/>
	<path class="st0" d="M506.6,187.1v-46.7h7.5c11.9,0,16.3,6.6,16.3,21.7v3.4c0,15.1-4.5,21.7-16.3,21.7L506.6,187.1L506.6,187.1z
		 M542.2,165.4V162c0-23.1-8.6-31.7-27.4-31.7h-19.7v66.8h19.7C533.5,197.1,542.2,188.5,542.2,165.4 M445.7,130.3v66.8h39.7v-10
		h-28.2V168h24v-9.9h-24v-17.7h28.2v-10h-39.7V130.3z M423.1,150.3l-0.3,13.8v33h11.5v-66.8h-16.9l-14.3,46.9l-14.2-46.9H372v66.8
		h11.5v-33l-0.3-13.8l14.2,46.8h11.5L423.1,150.3z M330.2,162.2v-21.8h9.8c4.5,0,10.3,1.6,10.3,10.4v0.9c0,8.8-5.8,10.4-10.3,10.4
		h-9.8V162.2z M330.2,172.2h9.8l9.6,24.9H362l-10.9-26.7c6.1-2.4,10.9-7.6,10.9-18.3v-1.7c0-16.9-11.9-20-22.3-20h-20.9v66.8h11.5
		v-25H330.2z M283.6,188.2c-9.3,0-12.6-7.7-12.6-22.8V162c0-15.1,3.3-22.8,12.6-22.8h0.8c9.3,0,12.6,7.7,12.6,22.8v3.4
		c0,15.1-3.3,22.8-12.6,22.8H283.6z M284.1,198.2c16.7,0,24.6-9.7,24.6-32.8V162c0-23.1-8-32.8-24.6-32.8
		c-16.8,0-24.7,9.7-24.7,32.8v3.4C259.3,188.5,267.3,198.2,284.1,198.2 M213.7,130.3v66.8h11.5V168h23.4v-9.9h-23.4v-17.7h27.6v-10
		h-39.1V130.3z M179.2,168c10.2,1.4,13.4,4.5,13.4,10.3v0.5c0,5.6-4.1,9.4-11.3,9.4h-0.8c-7.2,0-11.6-4.1-11.6-13.6h-11.5v0.9
		c0,15.3,8.1,22.8,23.4,22.8c14.9,0,23.4-7.4,23.4-19.9v-0.9c0-11.7-6.9-16.9-21.5-18.9c-10.5-1.5-13-4.5-13-10V148
		c0-5.2,4.1-8.7,10.4-8.7h0.8c8,0,11.2,4.5,11.2,14.5h11.5v-2c0-15.1-6.9-22.5-22.8-22.5c-14.5,0-22.9,7.5-22.9,19.3v0.9
		C158.1,160.5,164.6,166,179.2,168"/>
	<path class="st0" d="M365.9,25H355v31.9l0.3,14.1l-24.6-46h-12.2v66.8h10.9v-32l-0.3-14.1l24.6,46h12.2V25z M284.7,37.8l6.9,28.8
		h-13.9L284.7,37.8z M276.7,24.7l-17.5,67.1h12.4l3.7-15.2h18.8l3.7,15.2h12.3l-17.5-67.1C292.6,24.7,276.7,24.7,276.7,24.7z
		 M221.2,56.8V35h9.8c4.5,0,10.3,1.6,10.3,10.4v0.9c0,8.8-5.8,10.4-10.3,10.4L221.2,56.8L221.2,56.8z M221.2,66.9h9.8l9.6,24.9H253
		l-10.9-26.7c6.1-2.4,10.9-7.6,10.9-18.3V45c0-16.9-11.9-20-22.3-20h-20.9v66.8h11.5V66.9H221.2z M185.2,35h15.9V25h-43.3v10h15.9
		v56.7h11.5L185.2,35L185.2,35z"/>
	<path class="st0" d="M201.5,387h0.3c5.1,0,8.5,3.1,8.5,8.8v0.8c0,5.6-3.4,8.9-8.7,8.9h-0.3c-4.8,0-8.7-3.9-8.7-10.3v-0.5
		c0-0.8,0-1.5,0.1-2.3C194.2,389.2,197.5,387,201.5,387 M212,368.8c-6.3,0-13.3,2.2-17.6,8c-4.1,5.5-5.5,11.6-5.5,17.8v0.6
		c0,8.7,5.2,13.7,12.4,13.7c7.4,0,12.4-4.1,12.4-12.3v-0.5c0-8.2-5-12.2-11.7-12.2c-3.7,0-6.7,1.4-8.8,3.6c0.7-3,1.9-5.9,3.9-8.5
		c3.7-4.9,9.6-6.9,14.7-6.9v-3.3H212z M182.7,408.3V405h-10.1v-35.9h-2.3l-12.2,8.3l1.8,2.7l9.2-6.2V405h-10.2v3.2L182.7,408.3
		L182.7,408.3z"/>
	<path class="st0" d="M536.9,35.9v15.8c0,5.4-2.1,8.9-8.2,8.9h-0.3c-6.1,0-8.2-3.5-8.2-8.9V35.9c0-5.4,2.1-8.9,8.2-8.9h0.3
		C534.8,27,536.9,30.5,536.9,35.9 M516.6,35.5v16.6c0,6.7,3.4,11.7,11.9,11.7s11.9-5,11.9-11.7V35.5c0-6.7-3.4-11.7-11.9-11.7
		S516.6,28.8,516.6,35.5 M493.1,60l-3.7,0.1l14.4-15.3c3.5-3.7,4.5-6,4.5-10v-0.6c0-6.1-4.3-10.4-12.2-10.4
		c-8.4,0-12.2,4.5-12.2,12.3v1.2h3.5c0-7.3,2.8-10.3,8.5-10.3h0.3c5,0,8.5,2.9,8.5,7.7v0.5c0,2.8-1,4.8-4,7.9L483.9,61v2.2h24.4V60
		H493.1z"/>
	<path class="st0" d="M532.3,509.3l10.2-23.9H539l-8.3,20l-8.3-20H519l10.2,23.9v10.4h3.2v-10.4H532.3z M495.1,502.9v-14.6h6.4
		c2.9,0,7.2,1.1,7.2,7v0.7c0,5.9-4.2,7-7.2,7h-6.4V502.9z M495.1,505.8h6.3c0.5,0,1.1,0,1.6,0l5.5,14h3.5l-5.9-14.6
		c3.3-1.1,5.9-3.6,5.9-9.1v-0.9c0-7.9-5.6-9.8-10.5-9.8H492v34.3h3.2v-13.9H495.1z M463.4,485.4v34.3h19.1v-2.9h-16v-13.2h13.8v-2.8
		h-13.8v-12.5h16v-2.9H463.4z M455.1,519.7v-2.9h-14.5v-31.4h-3.2v34.3H455.1z M429.2,519.7v-2.9h-14.5v-31.4h-3.2v34.3H429.2z
		 M390.4,488.6l5.5,19.5H385L390.4,488.6z M388.2,485.1l-9.9,34.6h3.4l2.5-8.8h12.5l2.5,8.8h3.4l-9.9-34.6H388.2z M359.7,520.2
		c5.4,0,8.6-2,10.5-3.9v-13.4h-9.1v2.8h5.9v9.1c-1.2,1.3-3.6,2.6-7.1,2.6h-0.3c-6.3,0-9.1-4.1-9.1-13.9v-1.8
		c0-9.8,2.9-13.9,8.7-13.9h0.3c5.3,0,7.4,3,7.4,10.1h3.2v-1.2c0-7.7-3.6-11.7-10.9-11.7c-7.8,0-12,4.9-12,16.7v1.8
		C347.2,515.3,351.4,520.2,359.7,520.2 M290.6,517.3c-5.8,0-8.3-4.1-8.3-13.9v-1.8c0-9.8,2.6-13.9,8.3-13.9h0.3
		c5.8,0,8.3,4.1,8.3,13.9v1.8c0,9.8-2.6,13.9-8.3,13.9H290.6z M290.7,520.2c7.9,0,11.8-4.9,11.8-16.7v-1.8
		c0-11.9-3.9-16.7-11.8-16.7c-7.8,0-11.7,4.9-11.7,16.7v1.8C279,515.3,282.9,520.2,290.7,520.2 M263.1,488.3h8.7v-2.9h-20.6v2.9h8.7
		v31.4h3.2L263.1,488.3L263.1,488.3z M232.5,517.3c-5.8,0-8.3-4.1-8.3-13.9v-1.8c0-9.8,2.6-13.9,8.3-13.9h0.3
		c5.8,0,8.3,4.1,8.3,13.9v1.8c0,9.8-2.6,13.9-8.3,13.9H232.5z M232.7,520.2c7.9,0,11.8-4.9,11.8-16.7v-1.8
		c0-11.9-3.9-16.7-11.8-16.7c-7.8,0-11.7,4.9-11.7,16.7v1.8C220.9,515.3,224.9,520.2,232.7,520.2 M207.6,485.4v15.4h-15.2v-15.4
		h-3.2v34.3h3.2v-16.1h15.2v16.1h3.2v-34.3L207.6,485.4L207.6,485.4z M162.8,502.9v-14.6h6.4c2.9,0,7.2,1.1,7.2,7v0.7
		c0,5.9-4.2,7-7.2,7h-6.4V502.9z M162.8,505.8h6.3c4.9,0,10.5-1.8,10.5-9.7v-0.9c0-7.9-5.6-9.8-10.5-9.8h-9.5v34.3h3.2V505.8z"/>
	<line class="st1" x1="159" y1="447.2" x2="542.4" y2="447.2"/>
</g>
</svg>
