<?xml version="1.0" encoding="utf-8"?>
<!-- Generator: Adobe Illustrator 20.1.0, SVG Export Plug-In . SVG Version: 6.00 Build 0)  -->
<svg version="1.1" id="Layer_1" xmlns="http://www.w3.org/2000/svg" xmlns:xlink="http://www.w3.org/1999/xlink" x="0px" y="0px"
	 width="700px" height="467px" viewBox="0 0 700 467" style="enable-background:new 0 0 700 467;" xml:space="preserve">
<style type="text/css">
	.st0{fill:#231F20;}
	.st1{fill:none;stroke:#231F20;stroke-width:1.9396;}
</style>
<g>
	<path class="st0" d="M426.5,296.1l-11.9,49l-12-49h-11.2l15.9,60.8h14.3l15.9-60.8H426.5z M445.3,296.1v60.6h36v-9.1h-25.6v-17.3
		h21.8v-9h-21.8v-16.1h25.6v-9.1H445.3z M490.7,296.1v60.6h33.7v-9.1h-23.4v-51.5H490.7z"/>
	<path class="st0" d="M436.3,212.1l6.3,26.1h-12.6L436.3,212.1z M429.1,200.2l-15.9,60.8h11.2l3.4-13.8h17l3.4,13.8h11.2l-15.9-60.8
		H429.1z M378.7,229.4v-19.8h8.9c4.1,0,9.3,1.5,9.3,9.4v0.8c0,8-5.3,9.4-9.3,9.4L378.7,229.4L378.7,229.4z M378.7,238.5h8.9
		l8.7,22.6h11.2l-9.9-24.2c5.5-2.2,9.9-6.9,9.9-16.6v-1.5c0-15.3-10.8-18.1-20.2-18.1h-18.9v60.6h10.4L378.7,238.5L378.7,238.5z
		 M346.1,209.7h14.4v-9.1h-39.3v9.1h14.4v51.4h10.4V209.7z M247.4,242.7l17.5-42.1h-11.3l-11.4,29.3l-11.4-29.3h-11.2l17.5,42.1
		v18.5h10.4V242.7z M195.9,209.7c4.4,0,8.5,1.6,8.5,7.4v1c0,5.8-4.2,7.4-8.5,7.4h-8.2v-15.9L195.9,209.7L195.9,209.7z M197.1,234.6
		c4.5,0,8.9,2,8.9,8.3v0.8c0,6.2-4.4,8.2-8.9,8.2h-9.3v-17.4H197.1z M177.4,200.6v60.6h19.3c10,0,19.9-3.3,19.9-17v-1.6
		c0-6.9-3.5-10.6-8.3-12.6c4-2,6.7-5.5,6.7-11.5v-1.5c0-13.2-9.4-16.3-19.1-16.3L177.4,200.6L177.4,200.6z"/>
	<path class="st0" d="M492,156.5v-42.3h6.8c10.8,0,14.8,6,14.8,19.7v3.1c0,13.7-4.1,19.7-14.8,19.7L492,156.5L492,156.5z
		 M524.3,136.9v-3.1c0-20.9-7.8-28.7-24.8-28.7h-17.9v60.6h17.9C516.4,165.6,524.3,157.8,524.3,136.9 M436.8,105v60.6h36v-9.1h-25.6
		v-17.3H469v-9h-21.8v-16h25.6v-9.1L436.8,105L436.8,105z M416.3,123.2l-0.3,12.5v29.9h10.4V105h-15.3l-13,42.5L385.3,105H370v60.6
		h10.4v-29.9l-0.3-12.5l12.9,42.4h10.4L416.3,123.2z M332.1,134v-19.8h8.9c4.1,0,9.3,1.5,9.3,9.4v0.8c0,8-5.3,9.4-9.3,9.4L332.1,134
		L332.1,134z M332.1,143h8.9l8.7,22.6h11.2l-9.9-24.2c5.5-2.2,9.9-6.9,9.9-16.6v-1.5c0-15.3-10.8-18.1-20.2-18.1h-18.9v60.6h10.4
		L332.1,143L332.1,143z M289.9,157.5c-8.4,0-11.4-7-11.4-20.7v-3.1c0-13.7,3-20.7,11.4-20.7h0.7c8.4,0,11.4,7,11.4,20.7v3.1
		c0,13.7-3,20.7-11.4,20.7H289.9z M290.3,166.6c15.1,0,22.3-8.8,22.3-29.7v-3.1c0-20.9-7.3-29.7-22.3-29.7
		c-15.2,0-22.4,8.8-22.4,29.7v3.1C267.8,157.8,275.1,166.6,290.3,166.6 M226.5,105v60.6h10.4v-26.4h21.2v-9h-21.2v-16h25v-9.1
		L226.5,105L226.5,105L226.5,105z M195.2,139.2c9.2,1.3,12.1,4.1,12.1,9.3v0.5c0,5.1-3.7,8.5-10.2,8.5h-0.7
		c-6.5,0-10.5-3.7-10.5-12.3h-10.4v0.8c0,13.9,7.3,20.7,21.2,20.7c13.5,0,21.2-6.7,21.2-18v-0.8c0-10.6-6.3-15.3-19.5-17.1
		c-9.5-1.4-11.8-4.1-11.8-9.1v-0.5c0-4.7,3.7-7.9,9.4-7.9h0.7c7.3,0,10.2,4.1,10.2,13.1h10.4v-1.8c0-13.7-6.3-20.4-20.7-20.4
		c-13.1,0-20.8,6.8-20.8,17.5v0.8C176.1,132.4,182,137.4,195.2,139.2"/>
	<path class="st0" d="M364.5,9.6h-9.9v28.9l0.3,12.8L332.5,9.6h-11.1v60.6h9.9v-29l-0.3-12.8l22.3,41.7h11.1V9.6z M290.8,21.2
		l6.3,26.1h-12.6L290.8,21.2z M283.6,9.3l-15.9,60.8H279l3.4-13.8h17l3.4,13.8h11.2L298,9.3C298,9.3,283.6,9.3,283.6,9.3z
		 M233.3,38.4V18.7h8.9c4.1,0,9.3,1.5,9.3,9.4v0.8c0,8-5.3,9.4-9.3,9.4L233.3,38.4L233.3,38.4z M233.3,47.6h8.9l8.7,22.6h11.2
		l-9.9-24.2c5.5-2.2,9.9-6.9,9.9-16.6v-1.6c0-15.3-10.8-18.1-20.2-18.1H223v60.6h10.4L233.3,47.6L233.3,47.6z M200.6,18.7h14.4V9.6
		h-39.3v9.1h14.4v51.4h10.4L200.6,18.7L200.6,18.7z"/>
	<path class="st0" d="M215.4,337.8h0.3c4.6,0,7.7,2.8,7.7,8v0.7c0,5.1-3.1,8.1-7.9,8.1h-0.3c-4.4,0-7.9-3.5-7.9-9.3v-0.5
		c0-0.7,0-1.4,0.1-2.1C208.8,339.7,211.8,337.8,215.4,337.8 M224.9,321.3c-5.7,0-12.1,2-16,7.3c-3.7,5-5,10.5-5,16.1v0.5
		c0,7.9,4.7,12.4,11.2,12.4c6.7,0,11.2-3.7,11.2-11.2V346c0-7.4-4.5-11.1-10.6-11.1c-3.4,0-6.1,1.3-8,3.3c0.6-2.7,1.7-5.3,3.5-7.7
		c3.4-4.4,8.7-6.3,13.3-6.3v-3L224.9,321.3L224.9,321.3z M198.4,357.1v-3h-9.2v-32.5h-2.1l-11.1,7.5l1.6,2.4l8.3-5.6v28.2h-9.2v2.9
		L198.4,357.1L198.4,357.1z"/>
	<path class="st0" d="M519.5,19.5v14.3c0,4.9-1.9,8.1-7.4,8.1h-0.3c-5.5,0-7.4-3.2-7.4-8.1V19.5c0-4.9,1.9-8.1,7.4-8.1h0.3
		C517.6,11.4,519.5,14.6,519.5,19.5 M501.1,19.1v15c0,6.1,3.1,10.6,10.8,10.6c7.7,0,10.8-4.5,10.8-10.6v-15
		c0-6.1-3.1-10.6-10.8-10.6C504.2,8.5,501.1,13,501.1,19.1 M479.8,41.3l-3.4,0.1l13.1-13.9c3.2-3.4,4.1-5.4,4.1-9.1v-0.5
		c0-5.5-3.9-9.4-11.1-9.4c-7.6,0-11.1,4.1-11.1,11.2v1.1h3.2c0-6.6,2.5-9.3,7.7-9.3h0.3c4.5,0,7.7,2.6,7.7,7v0.5
		c0,2.5-0.9,4.4-3.6,7.2l-15.2,16.2v2h22.1v-2.9H479.8z"/>
	<path class="st0" d="M515.3,448.6l9.2-21.7h-3.2l-7.5,18.1l-7.5-18.1h-3.1l9.2,21.7v9.4h2.9L515.3,448.6L515.3,448.6L515.3,448.6z
		 M481.6,442.8v-13.2h5.8c2.6,0,6.5,1,6.5,6.3v0.6c0,5.3-3.8,6.3-6.5,6.3L481.6,442.8L481.6,442.8z M481.6,445.4h5.7
		c0.5,0,1,0,1.5,0l5,12.7h3.2l-5.3-13.2c3-1,5.3-3.3,5.3-8.2v-0.8c0-7.2-5.1-8.9-9.5-8.9h-8.6V458h2.9L481.6,445.4L481.6,445.4
		L481.6,445.4z M452.8,427V458h17.3v-2.6h-14.5v-12h12.5v-2.5h-12.5v-11.3h14.5V427H452.8z M445.3,458v-2.6h-13.1V427h-2.9V458
		H445.3z M421.8,458v-2.6h-13.1V427h-2.9V458H421.8z M386.7,429.9l5,17.7h-9.9L386.7,429.9z M384.7,426.7l-9,31.4h3.1l2.3-8h11.3
		l2.3,8h3.1l-9-31.4H384.7z M358.8,458.5c4.9,0,7.8-1.8,9.5-3.5v-12.1h-8.2v2.5h5.3v8.2c-1.1,1.2-3.3,2.4-6.4,2.4h-0.3
		c-5.7,0-8.2-3.7-8.2-12.6v-1.6c0-8.9,2.6-12.6,7.9-12.6h0.3c4.8,0,6.7,2.7,6.7,9.2h2.9v-1.1c0-7-3.3-10.6-9.9-10.6
		c-7.1,0-10.9,4.4-10.9,15.1v1.6C347.5,454.1,351.3,458.5,358.8,458.5 M296.2,455.9c-5.3,0-7.5-3.7-7.5-12.6v-1.6
		c0-8.9,2.4-12.6,7.5-12.6h0.3c5.3,0,7.5,3.7,7.5,12.6v1.6c0,8.9-2.4,12.6-7.5,12.6H296.2z M296.3,458.5c7.2,0,10.7-4.4,10.7-15.1
		v-1.6c0-10.8-3.5-15.1-10.7-15.1c-7.1,0-10.6,4.4-10.6,15.1v1.6C285.7,454.1,289.2,458.5,296.3,458.5 M271.3,429.6h7.9V427h-18.7
		v2.6h7.9V458h2.9L271.3,429.6L271.3,429.6z M243.5,455.9c-5.3,0-7.5-3.7-7.5-12.6v-1.6c0-8.9,2.4-12.6,7.5-12.6h0.3
		c5.3,0,7.5,3.7,7.5,12.6v1.6c0,8.9-2.4,12.6-7.5,12.6H243.5z M243.7,458.5c7.2,0,10.7-4.4,10.7-15.1v-1.6
		c0-10.8-3.5-15.1-10.7-15.1c-7.1,0-10.6,4.4-10.6,15.1v1.6C233,454.1,236.6,458.5,243.7,458.5 M221,427v14h-13.8v-14h-2.9V458h2.9
		v-14.6H221V458h2.9V427L221,427L221,427z M180.3,442.8v-13.2h5.8c2.6,0,6.5,1,6.5,6.3v0.6c0,5.3-3.8,6.3-6.5,6.3L180.3,442.8
		L180.3,442.8z M180.3,445.4h5.7c4.4,0,9.5-1.6,9.5-8.8v-0.8c0-7.2-5.1-8.9-9.5-8.9h-8.6V458h2.9V445.4z"/>
	<line class="st1" x1="176.9" y1="392.3" x2="524.5" y2="392.3"/>
</g>
</svg>
